# xmcd
#
# Track frame offsets:
#	150
#	14050
#	27891
#	44970
#	56822
#	70515
#	89988
#	107693
#	122250
#	133056
#	158768
#
# Disc length: 2415 seconds
#
# Revision: 1
# Processed by: cddbd v1.5.1PL2 Copyright (c) Steve Scherf et al.
# Submitted via: audiograbber 1.83.01
#
DISCID=9c096d0b
DTITLE=Billy Bacon and the Forbidden Pigs - Cloven Grooves
DYEAR=1900
DGENRE=Blues
TTITLE0=All I Really Want
TTITLE1=You Make Me Feel Good
TTITLE2=While The Wife's Away
TTITLE3=Bon Ton
TTITLE4=Goofin' Around
TTITLE5=Stars That Shine
TTITLE6=Valleys and Peaks
TTITLE7=I Know What You Meant
TTITLE8=Country Polka
TTITLE9=The River
TTITLE10=Data Track
EXTD=
EXTT0=
EXTT1=
EXTT2=
EXTT3=
EXTT4=
EXTT5=
EXTT6=
EXTT7=
EXTT8=
EXTT9=
EXTT10=
PLAYORDER=
